# xmcd
#
# Track frame offsets:
#	150
#	12907
#	24790
#	37200
#	50302
#	63765
#	78232
#	95535
#	109917
#	122635
#	139915
#	155087
#	166907
#	181647
#	194767
#	204835
#	216237
#	228590
#
# Disc length: 3230 seconds
# Revision: 2
# Processed by: cddbd v1.5.2PL0 Copyright (c) Steve Scherf et al.
# Submitted via: dBpowerAMP V12.0
#
DISCID=f00c9c12
DTITLE=Various Artist - From Cake-Walk to Ragtime 1896-1916 CD2
DYEAR=1997
DGENRE=Blues
TTITLE0=Prince's Orchestra - Black Diamond Rag
TTITLE1=Victor Military Band - Stomp DAnce
TTITLE2=Carr Robert - That Mysterious Rag
TTITLE3=Miller Walter - Grizzly Bear
TTITLE4=Empire Military Band - Dill Pickles - Hot Stuff Ragtime
TTITLE5=Mr R. White (=B. Whitlock) - Ragtime Frolics
TTITLE6=Joyce's Orchestra - I'll dance till the Sun breaks through
TTITLE7=Orch Tzigane Du Volney - Oh! That Yankianna Rag
TTITLE8=Peerless Orchestra - Bacchanal Rag
TTITLE9=Europe's Society Orchestra - Too Much Mustard
TTITLE10=Europe's Society Orchestra - Down Home Rag
TTITLE11=Europe's Society Orchestra - You're here and I'm here
TTITLE12=Europe's Society Orchestra - Castle Walk
TTITLE13=Van Eps Fred - Notoriety Rag
TTITLE14=Six Brown Brothers - That Moaning Saxophone Rag
TTITLE15=Moskovitz Joseph - Operatic Rag
TTITLE16=Fred Van Eps - Raggin' the Scale
TTITLE17=Conway's Band - Two-key Rag
EXTD=
EXTT0=
EXTT1=
EXTT2=
EXTT3=
EXTT4=
EXTT5=
EXTT6=
EXTT7=
EXTT8=
EXTT9=
EXTT10=
EXTT11=
EXTT12=
EXTT13=
EXTT14=
EXTT15=
EXTT16=
EXTT17=
PLAYORDER=
